<?xml version="1.0" standalone="no"?>
<!DOCTYPE svg PUBLIC "-//W3C//DTD SVG 20010904//EN"
 "http://www.w3.org/TR/2001/REC-SVG-20010904/DTD/svg10.dtd">
<svg version="1.0" xmlns="http://www.w3.org/2000/svg"
 width="679.000000pt" height="679.000000pt" viewBox="0 0 679.000000 679.000000"
 preserveAspectRatio="xMidYMid meet">
<metadata>
Created by potrace 1.11, written by Peter Selinger 2001-2013
</metadata>
<g transform="translate(0.000000,679.000000) scale(0.100000,-0.100000)"
fill="#000000" stroke="none">
<path d="M2985 6246 c-5 -2 -75 -9 -155 -16 -80 -7 -175 -21 -211 -31 -60 -17
-157 -62 -169 -78 -3 -3 -39 -37 -80 -76 -72 -67 -120 -132 -120 -161 0 -8 -9
-14 -19 -14 -10 0 -21 -6 -24 -14 -3 -8 -19 -17 -36 -21 -16 -3 -36 -17 -45
-29 -11 -18 -22 -22 -43 -19 l-28 4 30 -17 30 -18 -25 -6 c-22 -5 -23 -7 -7
-13 17 -6 16 -9 -6 -32 -16 -18 -45 -31 -90 -41 -58 -13 -71 -21 -95 -52 -15
-21 -32 -41 -38 -47 -18 -17 -40 -58 -48 -88 -3 -15 -17 -51 -30 -80 -36 -80
-49 -176 -37 -288 5 -51 15 -107 22 -124 6 -16 14 -50 16 -75 5 -52 30 -135
51 -167 8 -13 18 -41 23 -63 11 -49 75 -184 95 -201 8 -6 14 -17 14 -25 0 -7
6 -17 13 -21 7 -4 23 -37 35 -73 30 -92 46 -134 53 -140 3 -3 11 -15 18 -27 7
-13 17 -20 26 -17 13 6 36 -15 88 -79 18 -23 31 -28 73 -30 58 -4 114 -37 114
-68 0 -10 6 -19 13 -19 21 0 39 -38 27 -59 -9 -19 -51 -36 -80 -33 -8 1 5 -8
30 -19 25 -11 62 -37 82 -58 20 -22 57 -45 82 -54 47 -16 76 -37 76 -56 0 -6
11 -35 25 -65 14 -30 25 -60 25 -65 0 -6 8 -11 18 -11 13 0 14 -2 4 -9 -11 -7
-11 -15 2 -46 9 -20 16 -50 16 -66 0 -15 5 -31 10 -34 6 -4 8 -15 5 -25 -3
-10 -2 -21 3 -24 4 -3 9 -42 11 -88 l2 -84 -67 -11 c-38 -7 -80 -21 -97 -33
-42 -32 -80 -31 -130 2 -57 38 -108 38 -137 1 -58 -76 -90 -124 -90 -134 0 -8
-17 -9 -53 -5 -49 6 -54 5 -78 -21 -28 -30 -99 -137 -99 -148 0 -4 -26 -33
-58 -65 -72 -71 -121 -143 -128 -190 -6 -37 -10 -40 -94 -79 -14 -6 -52 -20
-84 -31 -33 -11 -80 -32 -105 -47 -25 -15 -48 -26 -51 -26 -3 1 -10 -2 -15 -7
-6 -5 -37 -19 -70 -31 -42 -16 -77 -39 -123 -83 -34 -34 -85 -81 -112 -106
-36 -33 -46 -48 -38 -57 7 -9 7 -22 -1 -44 -6 -18 -11 -50 -11 -73 0 -41 -37
-203 -50 -221 -12 -15 -69 -221 -81 -290 -16 -94 -28 -183 -34 -265 -4 -41 -9
-82 -12 -90 -3 -8 -7 -28 -9 -45 -2 -16 -11 -56 -19 -90 -8 -33 -17 -80 -20
-105 -3 -25 -8 -52 -10 -60 -2 -8 -7 -40 -10 -70 -3 -30 -10 -80 -15 -110 -5
-30 -10 -86 -11 -125 -2 -38 -6 -80 -10 -92 -11 -30 -14 -176 -5 -243 9 -74
14 -119 15 -157 l1 -33 2820 0 2821 0 -7 38 c-4 20 -14 53 -22 72 -10 24 -11
35 -3 38 6 2 11 21 11 43 0 32 -3 37 -17 32 -15 -6 -16 -4 -6 8 8 10 9 19 3
25 -6 6 -11 30 -12 53 -1 33 -6 45 -20 49 -10 2 -18 9 -18 14 0 6 6 8 13 5 9
-3 12 20 11 97 -1 133 -2 158 -12 152 -4 -2 -7 8 -6 22 1 15 -3 33 -9 39 -5 7
-6 13 -1 13 5 0 3 4 -5 9 -8 6 -14 32 -15 77 -1 65 -3 69 -29 82 -16 8 -26 16
-24 19 3 2 15 0 26 -7 17 -8 21 -8 21 4 0 8 -5 16 -11 18 -7 2 -14 19 -16 38
-7 61 -11 85 -13 85 -1 0 -3 16 -6 35 -5 43 -26 105 -36 108 -5 1 -11 2 -15 2
-5 0 -2 4 5 9 11 7 11 11 -2 24 -9 8 -13 23 -10 31 4 9 -3 39 -15 66 -11 27
-21 69 -21 94 0 37 -3 46 -17 46 -13 0 -15 2 -5 8 10 7 8 19 -9 58 -12 27 -21
54 -20 61 1 6 -3 14 -9 18 -5 3 -10 12 -10 18 0 7 4 6 10 -3 6 -9 10 -10 10
-3 0 6 -4 15 -10 18 -5 3 -10 19 -10 36 0 16 -4 29 -8 29 -4 0 -9 15 -10 33
-3 72 -7 82 -27 79 -17 -3 -17 -2 -4 14 11 13 11 18 2 21 -7 3 -13 16 -13 30
0 14 -6 37 -14 51 -8 15 -19 56 -26 92 -7 36 -14 72 -16 80 -2 8 -8 32 -13 52
-5 20 -6 39 -4 42 3 3 -4 18 -16 34 -12 17 -21 36 -21 44 0 7 -16 24 -35 38
-19 14 -46 41 -59 60 -13 19 -36 48 -50 64 -14 16 -26 33 -26 37 0 15 -103
109 -126 115 -13 3 -24 10 -24 15 0 5 -9 9 -20 9 -12 0 -33 11 -48 25 -15 14
-34 25 -44 25 -9 0 -19 4 -23 9 -3 6 -32 18 -65 28 -33 9 -60 21 -60 25 0 4
-9 8 -20 8 -11 0 -39 9 -62 19 -57 25 -102 44 -108 46 -3 1 -20 5 -38 9 -18 4
-46 14 -62 22 -16 9 -67 28 -112 44 -46 16 -83 35 -83 42 -1 7 -4 24 -8 38 -4
14 -8 36 -10 50 -3 27 -47 80 -66 80 -6 0 -11 4 -11 10 0 5 -11 12 -25 16 -14
3 -25 11 -25 16 0 6 7 7 16 4 14 -5 15 -4 4 9 -10 12 -10 15 4 15 9 0 16 8 16
20 0 11 -6 20 -14 20 -8 0 -18 9 -21 20 -4 13 -15 20 -30 20 -30 0 -55 10 -55
22 0 15 -74 78 -92 78 -9 0 -20 5 -23 10 -3 6 -17 10 -31 10 -13 0 -24 4 -24
10 0 5 -17 12 -37 15 -21 4 -68 16 -106 28 -58 18 -73 19 -111 9 -62 -16 -226
-94 -226 -106 0 -6 16 -29 35 -51 19 -22 35 -44 36 -50 4 -42 -5 -111 -14
-117 -7 -4 -7 -8 -2 -8 6 0 -4 -8 -21 -19 -16 -10 -43 -31 -60 -46 -16 -15
-41 -33 -56 -41 -16 -8 -28 -19 -28 -24 0 -6 -7 -10 -15 -10 -8 0 -15 -4 -15
-10 0 -5 -5 -10 -10 -10 -9 0 -40 -25 -94 -75 -6 -6 -42 -36 -81 -66 -38 -31
-87 -73 -107 -93 -47 -47 -82 -52 -167 -22 -36 13 -75 27 -86 31 -12 4 -15 4
-8 -2 7 -5 25 -33 41 -63 31 -58 61 -85 69 -62 6 16 56 42 83 42 64 0 122 -69
113 -135 -7 -56 -9 -68 -17 -87 -4 -9 -6 -21 -3 -25 3 -5 -1 -19 -8 -33 -12
-23 -11 -28 12 -59 30 -39 37 -101 16 -141 -9 -16 -11 -45 -7 -85 4 -43 1 -73
-11 -105 -9 -25 -19 -74 -22 -110 -4 -39 -13 -71 -23 -82 -16 -17 -18 -17 -48
17 -18 19 -32 38 -32 43 0 4 -10 14 -21 22 -12 8 -46 34 -75 58 l-53 42 -110
3 c-108 2 -110 2 -105 -20 4 -12 0 -24 -9 -30 -7 -4 -22 -20 -32 -35 -9 -16
-24 -28 -32 -28 -10 0 -14 -9 -12 -27 3 -29 -17 -101 -32 -118 -5 -5 -9 -34
-9 -66 0 -51 -3 -58 -30 -79 -23 -18 -30 -31 -30 -58 0 -20 -8 -45 -17 -56
-10 -12 -14 -18 -9 -14 10 9 36 -9 36 -24 0 -6 -8 -7 -17 -4 -9 4 -20 1 -24
-5 -5 -8 -33 -11 -81 -10 -121 3 -141 12 -240 108 -21 19 -38 43 -39 52 -3 45
-2 87 6 206 4 72 9 163 9 202 1 40 3 73 6 73 3 0 6 11 6 25 1 14 -2 25 -8 25
-5 0 -6 5 -2 12 4 6 8 43 10 82 1 39 3 73 4 76 2 7 0 88 -4 124 -5 38 27 111
53 128 12 7 21 16 21 21 0 20 40 46 100 65 36 12 108 35 160 53 52 17 151 49
220 72 69 22 126 41 128 43 8 5 -39 44 -48 39 -4 -3 -15 2 -23 10 -9 8 -26 15
-39 15 -13 0 -36 7 -52 15 -15 8 -32 15 -37 15 -4 0 -20 11 -35 25 -15 14 -33
25 -40 25 -8 0 -14 6 -14 14 0 8 -7 16 -15 20 -8 3 -15 12 -15 20 0 8 -9 17
-20 21 -11 3 -19 10 -17 15 1 4 -9 17 -21 28 l-24 21 34 10 c33 9 33 9 -17 12
-31 1 -40 4 -22 6 45 7 30 23 -19 19 -28 -2 -41 0 -33 5 8 5 31 9 52 9 20 0
37 5 37 10 0 6 -9 10 -21 10 -12 0 -17 4 -13 11 4 8 0 9 -15 4 -13 -4 -21 -2
-21 5 0 8 13 11 35 8 19 -2 35 -3 35 -3 0 1 -11 15 -25 31 -29 34 -33 55 -6
30 15 -13 20 -14 24 -4 3 7 6 0 7 -17 2 -19 4 -23 7 -12 5 19 23 17 77 -9 16
-8 35 -14 43 -14 8 0 11 -4 8 -10 -4 -6 7 -10 27 -10 40 -1 71 -22 62 -43 -3
-8 -1 -18 4 -21 6 -3 13 1 16 10 4 10 13 13 25 9 11 -3 22 -1 26 5 12 19 26
11 16 -9 -9 -15 -7 -20 12 -25 36 -9 43 -6 23 9 -27 21 -14 28 28 17 20 -6 38
-7 41 -2 3 5 19 5 35 0 16 -5 32 -5 35 0 3 5 -5 10 -17 13 -20 3 -19 5 8 11
17 5 31 13 31 19 -1 34 4 47 18 47 8 0 15 5 15 11 0 7 8 18 18 25 16 13 16 14
-2 7 -13 -4 -17 -2 -14 8 3 8 13 16 24 18 10 2 31 12 46 22 14 11 31 19 37 19
6 0 11 7 11 15 0 8 3 14 8 14 7 -1 11 0 30 6 4 2 17 6 30 10 12 4 22 11 22 16
0 12 50 33 69 30 9 -2 12 4 8 18 -3 15 0 21 10 21 12 0 13 3 4 14 -10 12 -21
12 -90 5 -16 -2 -50 14 -45 22 3 5 0 9 -5 9 -6 0 -11 6 -11 14 0 18 -55 44
-107 49 -42 4 -60 -7 -25 -16 13 -4 11 -5 -5 -6 -18 -1 -23 -7 -23 -28 -1 -25
-2 -26 -14 -11 -15 21 -27 14 -19 -10 5 -14 3 -15 -8 -4 -7 6 -21 12 -31 12
-10 0 -22 10 -27 22 -4 13 -10 17 -14 11 -9 -14 -63 0 -59 16 1 6 -4 11 -12
11 -7 0 -19 7 -26 15 -7 8 -17 12 -24 8 -6 -4 -5 1 3 10 12 15 10 17 -18 17
-17 0 -31 5 -31 11 0 7 -9 20 -21 30 -11 10 -22 26 -23 35 -3 22 -88 54 -94
36 -2 -7 -8 -12 -13 -12 -4 0 -5 8 -2 17 5 13 2 15 -11 10 -10 -4 -20 -7 -22
-7 -3 0 -2 -5 2 -11 5 -8 1 -8 -13 0 -11 6 -23 8 -26 5 -3 -3 -12 -2 -19 2
-15 10 -20 11 -49 13 -11 0 -18 5 -15 10 4 5 -2 7 -13 4 -11 -3 -21 2 -24 11
-4 9 -16 16 -27 16 -11 0 -20 7 -20 15 0 9 -6 12 -17 8 -13 -5 -15 -2 -11 14
4 15 -1 25 -19 34 -13 7 -21 19 -19 26 8 19 -5 16 -20 -4 -10 -14 -15 -15 -25
-6 -6 6 -18 9 -25 6 -8 -3 -14 -2 -14 1 0 4 10 11 23 16 17 7 18 9 4 9 -11 1
-17 7 -15 19 2 12 -3 16 -19 15 -16 -2 -21 2 -17 12 4 9 0 15 -9 15 -9 0 -17
-6 -20 -12 -2 -7 -2 -3 -1 9 2 12 0 25 -6 28 -5 3 -10 -1 -10 -10 0 -22 -16
-11 -23 16 -4 15 -2 19 8 15 8 -3 17 -1 21 5 3 6 12 8 20 5 17 -7 19 10 2 20
-6 4 -14 2 -16 -4 -2 -7 -14 -12 -26 -12 -18 0 -28 12 -49 62 -18 42 -24 64
-16 68 7 5 5 9 -5 13 -9 4 -16 15 -16 25 0 10 -5 23 -11 29 -8 8 -8 17 0 31 7
14 8 23 1 27 -5 3 -10 26 -10 50 0 24 -5 47 -11 51 -7 4 2 13 20 22 36 17 36
27 0 13 -22 -8 -24 -6 -26 23 -2 23 0 27 7 16 8 -13 10 -12 10 3 0 9 -5 17
-11 17 -5 0 -8 4 -5 9 3 5 -1 12 -10 15 -13 5 -14 9 -4 21 7 9 8 15 2 15 -14
0 -8 83 7 88 8 3 9 8 1 17 -8 9 -7 17 3 27 8 7 13 21 11 31 -1 9 2 19 7 23 5
3 9 14 9 26 0 17 3 18 15 8 8 -6 20 -10 27 -7 8 4 7 6 -4 6 -10 1 -18 6 -18
11 0 13 6 13 32 -1 15 -8 19 -8 14 0 -5 7 4 11 26 10 31 -1 32 -1 8 -9 -24 -8
-23 -8 8 -9 23 -1 32 3 32 16 0 13 3 12 19 -5 13 -15 30 -22 56 -22 28 0 36
-3 32 -14 -4 -9 1 -17 11 -19 12 -3 10 -5 -6 -6 -16 -1 -21 -5 -15 -13 8 -14
10 -19 12 -42 2 -24 42 -26 110 -4 36 11 72 22 80 24 7 3 10 11 7 20 -4 11 4
26 26 45 17 16 35 29 40 29 4 0 14 -15 21 -32 23 -55 34 -59 110 -40 62 15 68
18 63 38 -5 18 -1 22 19 22 14 0 25 -5 25 -10 0 -5 4 -7 10 -3 14 9 0 37 -16
31 -7 -3 -16 -1 -19 5 -4 5 -12 9 -18 8 -26 -3 -38 1 -32 12 4 6 1 9 -6 8 -8
-1 -35 1 -60 5 -31 5 -73 2 -130 -9 -46 -9 -93 -18 -105 -19 -11 0 -27 -6 -35
-11 -18 -13 -73 -13 -76 0 -1 6 -12 13 -25 17 -13 4 -2 5 25 2 37 -4 47 -2 47
10 0 8 6 17 13 19 9 4 8 8 -3 16 -8 6 -10 11 -5 11 6 0 4 4 -3 8 -8 6 -2 9 17
9 19 0 28 -4 24 -11 -4 -6 1 -5 10 3 9 7 17 10 17 6 0 -5 8 -1 18 8 19 17 130
17 189 -1 17 -6 34 -7 38 -4 3 3 8 -4 12 -16 6 -24 19 -29 25 -10 3 8 12 5 28
-10 13 -12 33 -22 44 -23 21 0 21 -1 1 -8 -17 -7 -16 -9 10 -12 54 -7 75 0 75
27 0 14 6 24 15 24 9 0 12 6 8 17 -4 11 -8 12 -11 5 -2 -7 -8 -12 -13 -12 -6
0 -5 8 1 20 9 16 7 24 -5 36 -8 8 -15 20 -15 25 0 5 -13 9 -29 9 -18 0 -35 8
-43 19 -14 20 -29 25 -108 37 -61 9 -124 8 -188 -4 -29 -5 -50 -7 -48 -4 6 5
-19 32 -29 32 -3 0 -3 -9 0 -20 4 -11 2 -20 -4 -20 -6 0 -11 7 -11 16 0 10 -6
14 -14 11 -8 -3 -17 1 -20 9 -9 22 -51 14 -49 -9 1 -15 -4 -18 -20 -13 -12 3
-26 6 -30 6 -5 0 -6 4 -3 9 3 5 -2 12 -11 15 -15 6 -15 8 -3 16 12 8 12 10 -3
16 -18 7 -24 34 -6 34 5 0 7 5 4 10 -3 6 1 10 10 10 9 0 13 -4 10 -10 -3 -5
-1 -10 5 -10 10 0 21 -8 55 -37 24 -22 36 -14 19 12 -15 24 -12 51 4 30 11
-16 34 -17 43 -3 7 10 9 10 9 1 0 -7 7 -13 15 -13 8 0 15 4 15 8 0 5 15 7 33
5 42 -3 90 16 83 33 -6 16 29 20 39 4 4 -6 11 -8 16 -5 5 4 9 2 9 -3 0 -6 20
-12 44 -13 32 -3 42 -1 38 9 -3 10 8 12 44 11 81 -3 230 2 214 8 -47 17 -77
35 -77 48 0 8 4 12 9 9 5 -3 16 0 24 7 13 10 21 10 47 -3 48 -24 97 -41 102
-36 3 2 -26 20 -63 40 -37 19 -67 39 -67 44 0 5 -3 14 -7 20 -4 6 -1 11 7 11
13 0 19 -9 17 -27 0 -3 8 -6 18 -6 15 0 16 3 8 14 -12 14 33 -3 96 -36 27 -14
232 -35 248 -25 4 2 28 -5 53 -16 25 -11 53 -18 63 -15 14 5 15 4 2 -5 -13 -9
-13 -11 1 -11 9 0 33 -11 53 -25 20 -14 46 -25 58 -25 18 0 16 4 -12 30 -47
44 -34 50 84 34 56 -7 59 -8 77 -48 10 -23 20 -59 23 -81 2 -22 12 -76 20
-120 9 -44 19 -104 23 -134 5 -30 13 -56 19 -58 13 -4 40 97 55 206 6 42 13
92 17 111 12 67 6 412 -8 470 -8 30 -13 65 -11 77 1 12 -17 56 -41 98 -24 42
-48 86 -55 98 -6 12 -41 56 -77 97 -36 41 -72 83 -80 92 -9 10 -26 35 -40 57
-38 60 -161 135 -281 171 -39 12 -97 34 -131 50 -33 16 -87 36 -120 44 -32 8
-84 21 -115 29 -54 14 -243 31 -264 23z m545 -1076 c0 -5 -4 -10 -9 -10 -6 0
-13 5 -16 10 -3 6 1 10 9 10 9 0 16 -4 16 -10z m490 -86 c0 -2 -7 -4 -15 -4
-8 0 -15 4 -15 10 0 5 7 7 15 4 8 -4 15 -8 15 -10z m-1285 -214 c-3 -5 -11
-10 -16 -10 -6 0 -7 5 -4 10 3 6 11 10 16 10 6 0 7 -4 4 -10z m-61 -19 c4 -5
-4 -7 -16 -3 -16 4 -19 2 -13 -8 5 -9 4 -11 -3 -6 -7 4 -12 11 -12 17 0 12 37
12 44 0z m-499 -592 c-8 -12 -45 -12 -45 0 0 10 30 20 43 14 4 -3 5 -9 2 -14z
m-25 -59 c0 -5 -5 -10 -11 -10 -5 0 -7 5 -4 10 3 6 8 10 11 10 2 0 4 -4 4 -10z
m935 -670 c3 -5 1 -10 -4 -10 -6 0 -11 5 -11 10 0 6 2 10 4 10 3 0 8 -4 11
-10z m-40 -10 c3 -6 -1 -7 -9 -4 -18 7 -21 14 -7 14 6 0 13 -4 16 -10z m62
-22 c-3 -8 -6 -5 -6 6 -1 11 2 17 5 13 3 -3 4 -12 1 -19z m1623 -308 c0 -5 -2
-10 -4 -10 -3 0 -8 5 -11 10 -3 6 -1 10 4 10 6 0 11 -4 11 -10z m-1797 -17
c-7 -2 -21 -2 -30 0 -10 3 -4 5 12 5 17 0 24 -2 18 -5z m-113 -57 c0 -3 -4 -8
-10 -11 -5 -3 -10 -1 -10 4 0 6 5 11 10 11 6 0 10 -2 10 -4z m390 -36 c0 -5
-4 -10 -10 -10 -5 0 -10 5 -10 10 0 6 5 10 10 10 6 0 10 -4 10 -10z m-60 -24
c0 -2 -7 -9 -15 -16 -13 -11 -14 -10 -9 4 5 14 24 23 24 12z m2947 -1338 c-3
-8 -6 -5 -6 6 -1 11 2 17 5 13 3 -3 4 -12 1 -19z m-1634 -667 c23 -9 25 -17
37 -121 6 -61 10 -114 7 -116 -3 -3 -20 -1 -38 4 -26 6 -34 14 -35 33 -1 13
-4 63 -8 110 -5 74 -2 99 10 99 1 0 14 -4 27 -9z m1872 -241 c-3 -5 -14 -10
-23 -9 -14 0 -13 2 3 9 27 11 27 11 20 0z m-3417 -47 c13 -27 36 -132 30 -138
-3 -3 -16 -1 -30 4 -20 7 -28 22 -40 70 -11 42 -12 63 -5 70 16 16 35 13 45
-6z m3472 -218 c0 -19 -2 -35 -4 -35 -2 0 -6 16 -8 35 -2 19 0 35 4 35 4 0 8
-16 8 -35z m-20 -25 c0 -5 -4 -10 -10 -10 -5 0 -10 5 -10 10 0 6 5 10 10 10 6
0 10 -4 10 -10z m-2929 -23 c50 -23 77 -90 47 -114 -7 -5 -38 -15 -69 -22 -30
-6 -71 -23 -91 -36 -31 -21 -37 -22 -42 -9 -13 33 -6 111 12 131 21 24 93 73
101 69 3 -1 22 -10 42 -19z m2925 -16 c-4 -5 0 -11 6 -14 7 -2 10 -8 6 -12 -4
-4 -11 -4 -17 0 -14 8 -14 35 0 35 5 0 8 -4 5 -9z m14 -66 c0 -8 -4 -15 -9
-15 -13 0 -22 16 -14 24 11 11 23 6 23 -9z"/>
<path d="M3593 5022 c-13 -2 -23 -7 -23 -12 0 -4 -12 -11 -26 -14 -51 -13
-105 -97 -74 -116 18 -11 62 1 56 15 -3 8 2 11 15 8 15 -4 18 -2 12 13 -5 13
-3 16 10 11 18 -7 77 13 77 26 0 4 3 6 8 4 10 -6 107 46 104 56 -2 9 -120 16
-159 9z m-98 -122 c3 -5 1 -10 -4 -10 -6 0 -11 5 -11 10 0 6 2 10 4 10 3 0 8
-4 11 -10z"/>
<path d="M3705 4854 c-82 -19 -107 -30 -129 -55 -15 -16 -31 -29 -36 -29 -6 0
-9 -16 -7 -35 2 -34 3 -36 37 -33 32 3 35 5 32 31 -2 20 4 35 19 48 34 29 56
24 69 -16 16 -50 37 -57 99 -38 28 9 51 20 51 25 0 4 11 8 25 8 14 0 25 5 25
11 0 5 5 7 10 4 18 -11 11 10 -9 27 -52 44 -128 65 -186 52z"/>
<path d="M2475 4330 c-3 -5 -1 -10 4 -10 6 0 11 5 11 10 0 6 -2 10 -4 10 -3 0
-8 -4 -11 -10z"/>
<path d="M3172 4328 c-15 -15 -16 -28 -2 -28 6 0 10 6 10 14 0 8 6 17 13 19 6
3 7 6 2 6 -6 1 -16 -4 -23 -11z"/>
<path d="M3735 4320 c3 -5 8 -10 11 -10 2 0 4 5 4 10 0 6 -5 10 -11 10 -5 0
-7 -4 -4 -10z"/>
<path d="M3122 4276 c-12 -18 -22 -38 -22 -44 0 -7 -6 -12 -13 -12 -13 0 -48
-85 -39 -95 3 -2 11 0 19 6 7 6 13 8 13 5 0 -4 7 -1 15 8 8 8 15 19 15 25 0
19 35 -2 83 -51 26 -26 52 -49 58 -49 5 -1 12 -2 17 -4 4 -1 20 -5 36 -10 19
-5 31 -4 36 5 10 16 95 26 104 11 4 -6 13 -11 19 -11 7 0 6 4 -3 10 -11 7 -12
10 -2 10 21 0 59 34 54 48 -2 6 3 12 12 12 9 0 16 4 16 10 0 5 20 20 45 31 55
26 53 43 -4 47 -42 3 -76 -12 -65 -29 7 -11 -3 -11 -44 0 -24 7 -31 7 -25 -2
3 -7 -2 -5 -13 4 -10 9 -38 19 -61 22 -35 4 -43 2 -48 -14 -6 -17 -18 -21
-103 -33 -13 -2 -32 6 -47 22 -27 27 -30 43 -15 72 7 12 6 21 -3 28 -9 8 -18
2 -35 -22z"/>
<path d="M3755 4300 c-3 -5 3 -10 15 -10 12 0 18 5 15 10 -3 6 -10 10 -15 10
-5 0 -12 -4 -15 -10z"/>
<path d="M2438 4293 c7 -3 16 -2 19 1 4 3 -2 6 -13 5 -11 0 -14 -3 -6 -6z"/>
<path d="M2478 4283 c7 -3 16 -2 19 1 4 3 -2 6 -13 5 -11 0 -14 -3 -6 -6z"/>
<path d="M3785 4271 c-3 -5 -1 -12 5 -16 5 -3 10 1 10 9 0 18 -6 21 -15 7z"/>
<path d="M2475 4070 c3 -5 8 -10 11 -10 2 0 4 5 4 10 0 6 -5 10 -11 10 -5 0
-7 -4 -4 -10z"/>
<path d="M2460 4046 c0 -2 7 -7 16 -10 8 -3 12 -2 9 4 -6 10 -25 14 -25 6z"/>
<path d="M2720 4030 c0 -5 5 -10 11 -10 5 0 7 5 4 10 -3 6 -8 10 -11 10 -2 0
-4 -4 -4 -10z"/>
<path d="M2202 4018 c6 -18 59 -29 76 -16 12 10 11 13 -5 19 -30 12 -75 10
-71 -3z"/>
<path d="M2840 4010 c0 -4 10 -12 23 -18 19 -10 16 -11 -23 -8 -25 2 -53 7
-62 11 -25 10 -23 -16 2 -43 12 -12 24 -22 28 -23 45 -5 52 -4 52 8 0 7 -7 13
-15 13 -8 0 -15 4 -15 9 0 4 13 7 29 5 23 -3 30 1 35 19 8 32 9 32 -24 33 -16
1 -30 -2 -30 -6z"/>
<path d="M2348 4003 c7 -3 16 -2 19 1 4 3 -2 6 -13 5 -11 0 -14 -3 -6 -6z"/>
<path d="M3540 3973 c-14 -2 -34 -8 -45 -13 -11 -5 -54 -11 -95 -13 -45 -3
-94 -14 -122 -26 -46 -21 -68 -26 -161 -38 -53 -6 -65 -16 -46 -39 9 -12 26
-14 68 -11 31 3 56 6 56 7 0 9 66 6 93 -6 39 -16 100 -18 122 -4 11 7 11 10 2
10 -7 0 -10 5 -6 11 3 6 -1 10 -12 9 -35 -4 -109 2 -89 7 10 3 29 12 41 19 12
8 50 19 85 25 35 6 68 14 74 19 14 12 108 24 170 21 32 -1 57 4 70 13 18 14
11 15 -80 14 -55 0 -111 -3 -125 -5z"/>
<path d="M2510 3960 c0 -5 5 -10 10 -10 6 0 10 5 10 10 0 6 -4 10 -10 10 -5 0
-10 -4 -10 -10z"/>
<path d="M2808 3903 c7 -3 16 -2 19 1 4 3 -2 6 -13 5 -11 0 -14 -3 -6 -6z"/>
<path d="M2710 3779 c0 -5 5 -7 10 -4 6 3 10 8 10 11 0 2 -4 4 -10 4 -5 0 -10
-5 -10 -11z"/>
<path d="M3515 3740 c3 -5 8 -10 11 -10 2 0 4 5 4 10 0 6 -5 10 -11 10 -5 0
-7 -4 -4 -10z"/>
<path d="M3613 3406 c4 -14 47 -21 47 -8 0 5 -11 12 -25 15 -16 3 -24 0 -22
-7z"/>
<path d="M2915 3100 c3 -5 13 -10 21 -10 8 0 12 5 9 10 -3 6 -13 10 -21 10 -8
0 -12 -4 -9 -10z"/>
<path d="M2960 3091 c0 -5 -10 -12 -22 -14 l-23 -4 23 -2 c13 0 21 -4 19 -8
-3 -5 6 -9 19 -9 13 -1 21 2 18 7 -3 5 -12 9 -21 9 -13 0 -13 3 -3 15 9 10 9
15 1 15 -6 0 -11 -4 -11 -9z"/>
<path d="M3013 3063 c9 -9 20 -13 24 -9 4 4 1 11 -7 16 -25 16 -35 11 -17 -7z"/>
<path d="M3070 3050 c0 -5 5 -10 10 -10 6 0 10 5 10 10 0 6 -4 10 -10 10 -5 0
-10 -4 -10 -10z"/>
<path d="M2905 3030 c11 -5 31 -8 45 -8 l25 0 -25 8 c-14 4 -34 8 -45 8 l-20
1 20 -9z"/>
<path d="M3010 3030 c0 -5 5 -10 10 -10 6 0 10 5 10 10 0 6 -4 10 -10 10 -5 0
-10 -4 -10 -10z"/>
<path d="M3148 2993 c6 -2 18 -2 25 0 6 3 1 5 -13 5 -14 0 -19 -2 -12 -5z"/>
<path d="M3150 2956 c0 -2 7 -7 16 -10 8 -3 12 -2 9 4 -6 10 -25 14 -25 6z"/>
<path d="M3215 2930 c3 -5 8 -10 11 -10 2 0 4 5 4 10 0 6 -5 10 -11 10 -5 0
-7 -4 -4 -10z"/>
</g>
</svg>
